<svg width="47" height="47" viewBox="0 0 47 47" fill="none" xmlns="http://www.w3.org/2000/svg">
<circle cx="23.5" cy="23.5" r="23.5" fill="#FF6D60"/>
<path d="M23.9268 27.0823C26.4497 27.0823 28.4943 25.0619 28.4943 22.5686V16.5503C28.4943 14.057 26.4497 12.0366 23.9268 12.0366C21.404 12.0366 19.3594 14.057 19.3594 16.5503V22.5686C19.3594 25.0619 21.404 27.0823 23.9268 27.0823ZM32.793 22.5148C32.793 22.3966 32.6963 22.2999 32.5781 22.2999H30.9661C30.8479 22.2999 30.7511 22.3966 30.7511 22.5148C30.7511 26.2843 27.6963 29.3392 23.9268 29.3392C20.1573 29.3392 17.1025 26.2843 17.1025 22.5148C17.1025 22.3966 17.0058 22.2999 16.8876 22.2999H15.2755C15.1573 22.2999 15.0606 22.3966 15.0606 22.5148C15.0606 27.0474 18.462 30.7873 22.8521 31.3166V34.0678H18.9483C18.5802 34.0678 18.2847 34.452 18.2847 34.9276V35.8948C18.2847 36.013 18.3599 36.1097 18.4512 36.1097H29.4024C29.4937 36.1097 29.569 36.013 29.569 35.8948V34.9276C29.569 34.452 29.2734 34.0678 28.9053 34.0678H24.894V31.33C29.3352 30.8464 32.793 27.085 32.793 22.5148Z" fill="#FBFCEC"/>
</svg>
