<svg width="44" height="44" viewBox="0 0 44 44" fill="none" xmlns="http://www.w3.org/2000/svg">
<circle cx="22" cy="22" r="22" fill="#FFF0EF"/>
<path d="M22 24.625C24.2008 24.625 25.9844 22.8625 25.9844 20.6875V15.4375C25.9844 13.2625 24.2008 11.5 22 11.5C19.7992 11.5 18.0156 13.2625 18.0156 15.4375V20.6875C18.0156 22.8625 19.7992 24.625 22 24.625ZM29.7344 20.6406C29.7344 20.5375 29.65 20.4531 29.5469 20.4531H28.1406C28.0375 20.4531 27.9531 20.5375 27.9531 20.6406C27.9531 23.9289 25.2883 26.5938 22 26.5938C18.7117 26.5938 16.0469 23.9289 16.0469 20.6406C16.0469 20.5375 15.9625 20.4531 15.8594 20.4531H14.4531C14.35 20.4531 14.2656 20.5375 14.2656 20.6406C14.2656 24.5945 17.2328 27.857 21.0625 28.3187V30.7188H17.657C17.3359 30.7188 17.0781 31.0539 17.0781 31.4688V32.3125C17.0781 32.4156 17.1438 32.5 17.2234 32.5H26.7766C26.8562 32.5 26.9219 32.4156 26.9219 32.3125V31.4688C26.9219 31.0539 26.6641 30.7188 26.343 30.7188H22.8438V28.3305C26.718 27.9086 29.7344 24.6273 29.7344 20.6406Z" fill="#FFAFA7"/>
</svg>
