<svg width="44" height="44" viewBox="0 0 44 44" fill="none" xmlns="http://www.w3.org/2000/svg">
<circle cx="22" cy="22" r="22" fill="#F8F8FA"/>
<path d="M30.9086 27.2922L28.3234 25.7992C28.281 25.7749 28.2341 25.7592 28.1856 25.753C28.137 25.7468 28.0877 25.7502 28.0405 25.763C27.9933 25.7759 27.949 25.7979 27.9103 25.8278C27.8716 25.8578 27.8392 25.895 27.8148 25.9375L27.3484 26.7461C27.2453 26.9242 27.3062 27.1539 27.4844 27.257L30.0695 28.75C30.112 28.7743 30.1589 28.79 30.2074 28.7962C30.2559 28.8025 30.3052 28.799 30.3525 28.7862C30.3997 28.7734 30.4439 28.7513 30.4827 28.7214C30.5214 28.6915 30.5538 28.6542 30.5781 28.6117L31.0445 27.8031C31.1477 27.625 31.0844 27.3953 30.9086 27.2922ZM27.8125 18.0625C27.8368 18.105 27.8693 18.1422 27.908 18.1722C27.9467 18.2021 27.9909 18.2241 28.0382 18.237C28.0854 18.2498 28.1347 18.2532 28.1832 18.247C28.2318 18.2408 28.2786 18.2251 28.3211 18.2008L30.9062 16.7078C31.0844 16.6047 31.1453 16.375 31.0422 16.1969L30.5781 15.3906C30.5538 15.3481 30.5214 15.3109 30.4827 15.2809C30.4439 15.251 30.3997 15.229 30.3525 15.2161C30.3052 15.2033 30.2559 15.1999 30.2074 15.2061C30.1589 15.2123 30.112 15.228 30.0695 15.2523L27.4844 16.7453C27.3988 16.7952 27.3364 16.877 27.3109 16.9727C27.2855 17.0685 27.299 17.1704 27.3484 17.2563L27.8125 18.0625ZM31.8906 21.1562H28.8906C28.6844 21.1562 28.5156 21.325 28.5156 21.5312V22.4688C28.5156 22.675 28.6844 22.8438 28.8906 22.8438H31.8906C32.0969 22.8438 32.2656 22.675 32.2656 22.4688V21.5312C32.2656 21.325 32.0969 21.1562 31.8906 21.1562ZM24.6695 12.6953C24.5313 12.6953 24.3906 12.7328 24.2617 12.8195L15.9531 18.25H12.1094C11.9031 18.25 11.7344 18.4187 11.7344 18.625V25.375C11.7344 25.5813 11.9031 25.75 12.1094 25.75H15.9531L24.2617 31.1805C24.3906 31.2648 24.5336 31.3047 24.6695 31.3047C25.0609 31.3047 25.4219 30.993 25.4219 30.5523V13.4477C25.4219 13.007 25.0609 12.6953 24.6695 12.6953Z" fill="#DEE2E6"/>
</svg>
