<?xml version="1.0" standalone="no"?>
<!DOCTYPE svg PUBLIC "-//W3C//DTD SVG 20010904//EN"
 "http://www.w3.org/TR/2001/REC-SVG-20010904/DTD/svg10.dtd">
<svg version="1.0" xmlns="http://www.w3.org/2000/svg"
 width="260.000000pt" height="260.000000pt" viewBox="0 0 260.000000 260.000000"
 preserveAspectRatio="xMidYMid meet">
<metadata>
Created by potrace 1.14, written by Peter Selinger 2001-2017
</metadata>
<g transform="translate(0.000000,260.000000) scale(0.100000,-0.100000)"
fill="#000000" stroke="none">
<path d="M557 1725 c-137 -35 -233 -121 -251 -227 -6 -31 -3 -39 14 -48 26
-14 60 3 60 31 0 33 27 86 60 117 123 118 376 117 495 -3 26 -25 46 -56 50
-76 12 -59 16 -68 34 -74 81 -26 61 108 -29 189 -41 36 -122 80 -172 93 -55
13 -205 12 -261 -2z"/>
<path d="M318 1390 c-13 -10 -20 -32 -22 -70 -4 -68 -3 -65 -21 -50 -22 18
-100 16 -129 -4 -42 -27 -58 -71 -59 -160 0 -89 16 -134 58 -162 32 -21 106
-20 140 2 24 16 28 16 36 2 6 -10 21 -15 46 -14 l38 2 3 219 c2 189 0 220 -14
236 -19 21 -50 21 -76 -1z m-43 -214 c27 -20 30 -111 4 -137 -24 -24 -34 -24
-59 1 -36 36 -18 150 25 150 6 0 20 -6 30 -14z"/>
<path d="M1003 1399 c-12 -4 -25 -18 -28 -31 -3 -13 -4 -115 -3 -228 l3 -204
30 1 c59 1 66 3 60 13 -8 14 -5 13 37 -9 63 -32 137 -13 175 46 25 38 25 198
0 236 -34 53 -89 71 -163 53 l-30 -7 2 43 c4 76 -27 109 -83 87z m161 -225
c22 -21 22 -117 0 -139 -15 -15 -48 -13 -67 4 -4 4 -8 34 -8 66 -1 46 3 62 17
72 23 17 39 16 58 -3z"/>
<path d="M520 1381 c2 -75 139 -75 140 0 0 14 -12 16 -70 16 -57 0 -70 -3 -70
-16z"/>
<path d="M730 1385 c0 -26 37 -59 68 -61 34 -2 73 28 78 59 2 14 -9 17 -72 16
-54 -1 -74 -4 -74 -14z"/>
<path d="M1500 1378 c-11 -4 -25 -20 -31 -34 -11 -32 -11 -339 1 -370 12 -31
52 -40 178 -39 120 1 135 7 135 50 0 42 -16 49 -113 49 l-90 1 0 40 0 40 85 0
c88 1 103 7 109 42 8 40 -25 55 -114 54 l-81 -1 3 37 3 38 82 1 c88 1 113 11
113 49 0 41 -24 49 -146 50 -62 0 -123 -3 -134 -7z"/>
<path d="M549 1267 c-20 -19 -21 -27 -17 -141 5 -134 16 -165 68 -186 41 -17
96 -15 127 5 22 15 27 15 34 3 5 -9 22 -14 46 -13 l38 1 3 157 c2 144 1 158
-17 176 -11 11 -25 18 -33 17 -36 -6 -58 -19 -59 -34 -1 -9 -3 -57 -4 -107 -3
-112 -1 -102 -25 -115 -14 -8 -26 -8 -40 0 -18 10 -20 21 -20 113 -1 112 -10
137 -54 141 -15 2 -34 -5 -47 -17z"/>
<path d="M1859 1276 c-24 -11 -24 -14 -27 -174 -1 -89 1 -162 5 -163 5 -1 29
-2 56 -3 l47 -1 0 105 c0 108 13 150 45 150 36 0 45 -29 45 -144 l0 -113 53 1
c28 1 55 5 58 9 3 4 5 63 4 131 -2 99 -6 130 -21 154 -28 49 -96 69 -153 46
-19 -8 -39 -11 -45 -6 -22 17 -44 20 -67 8z"/>
<path d="M2283 1278 c-33 -9 -82 -58 -84 -86 -14 -164 17 -228 112 -236 18 -2
48 2 65 9 29 12 31 11 27 -6 -6 -23 -35 -32 -94 -30 -53 2 -75 -16 -65 -53 16
-65 198 -50 251 22 18 24 20 44 21 187 2 162 -2 185 -36 197 -8 3 -30 -1 -49
-8 -21 -9 -38 -11 -45 -5 -17 14 -68 19 -103 9z m107 -109 c29 -53 13 -119
-30 -119 -36 0 -50 17 -50 65 0 44 7 59 30 68 28 10 39 7 50 -14z"/>
</g>
</svg>
