<svg width="342" height="43" viewBox="0 0 342 43" fill="none" xmlns="http://www.w3.org/2000/svg">
<rect x="0.25" y="0.25" width="341.5" height="42.5" rx="7.75" fill="white" stroke="#767676" stroke-width="0.5"/>
<path d="M132.469 16.125V17.3906C132.469 18.7109 132.469 20.1562 132.094 22.1562H134.047V23.5625H128.438V29.4062H126.688V23.5625H121.172V22.1562H130.328C130.719 20.2344 130.734 18.7969 130.734 17.5312H122.688V16.125H132.469ZM146.328 15.8594V16.7969C146.328 17.7266 146.328 18.8828 146.047 20.3594H147.906V21.7344H135V20.3594H144.297C144.547 19.0781 144.586 18.0703 144.594 17.2344H136.594V15.8594H146.328ZM146.312 22.8594V26.6875H138.234V27.8906H146.672V29.25H136.5V25.3594H144.578V24.2188H136.484V22.8594H146.312ZM161.734 26.3125V27.75H148.828V26.3125H154.391V24.0156H150.359V19.3906H158.484V17.6406H150.328V16.2344H160.203V20.7656H152.094V22.5938H160.531V24.0156H156.109V26.3125H161.734ZM171.797 18.6562C171.781 21.25 173.141 23.8438 175.438 24.8281L174.406 26.2188C172.781 25.4688 171.586 23.9688 170.938 22.125C170.289 24.1172 169.078 25.7422 167.359 26.5469L166.297 25.0938C168.656 24.0781 170.031 21.375 170.031 18.6562V16.4062H171.797V18.6562ZM178.203 15.2656V29.4062H176.453V15.2656H178.203ZM185.344 17.7188C185.344 19.4531 186.469 21.1719 188.688 21.9062L187.812 23.25C186.234 22.7266 185.109 21.6641 184.5 20.3438C183.867 21.7891 182.695 22.9375 181.047 23.5L180.125 22.1562C182.406 21.4062 183.594 19.5781 183.594 17.7188V17.5469H180.609V16.1562H188.281V17.5469H185.344V17.7188ZM191.422 15.2656V18.7969H193.391V20.25H191.422V23.7812H189.688V15.2656H191.422ZM191.422 24.4375V29.3906H189.688V25.8281H182.016V24.4375H191.422ZM205.172 15.2656V20.8906H207.344V22.3281H205.172V29.3906H203.453V15.2656H205.172ZM202.359 17.4375V18.8281H194.031V17.4375H197.375V15.4688H199.109V17.4375H202.359ZM198.25 19.75C200.281 19.75 201.797 21.125 201.797 23.0781C201.797 25.0312 200.281 26.3906 198.25 26.3906C196.188 26.3906 194.672 25.0312 194.688 23.0781C194.672 21.125 196.188 19.75 198.25 19.75ZM198.25 21.1719C197.141 21.1719 196.344 21.9219 196.344 23.0781C196.344 24.2344 197.141 24.9688 198.25 24.9531C199.328 24.9688 200.125 24.2344 200.141 23.0781C200.125 21.9219 199.328 21.1719 198.25 21.1719ZM219.734 15.2656V29.3906H217.984V15.2656H219.734ZM215.516 16.7656C215.516 20.9688 213.891 24.5469 208.938 26.8906L208.031 25.5C211.727 23.7422 213.445 21.3516 213.75 18.1406H208.75V16.7656H215.516Z" fill="#757575"/>
<path fill-rule="evenodd" clip-rule="evenodd" d="M37.56 21.2501C37.56 20.4701 37.49 19.7201 37.36 19.0001H27V23.2551H32.92C32.665 24.6301 31.89 25.7951 30.725 26.5751V29.3351H34.28C36.36 27.4201 37.56 24.6001 37.56 21.2501Z" fill="#4285F4"/>
<path fill-rule="evenodd" clip-rule="evenodd" d="M27 31.9998C29.97 31.9998 32.46 31.0148 34.28 29.3348L30.725 26.5748C29.74 27.2348 28.48 27.6248 27 27.6248C24.135 27.6248 21.71 25.6898 20.845 23.0898H17.17V25.9398C18.98 29.5348 22.7 31.9998 27 31.9998Z" fill="#34A853"/>
<path fill-rule="evenodd" clip-rule="evenodd" d="M20.845 23.0899C20.625 22.4299 20.5 21.7249 20.5 20.9999C20.5 20.2749 20.625 19.5699 20.845 18.9099V16.0599H17.17C16.425 17.5449 16 19.2249 16 20.9999C16 22.7749 16.425 24.4549 17.17 25.9399L20.845 23.0899Z" fill="#FBBC05"/>
<path fill-rule="evenodd" clip-rule="evenodd" d="M27 14.375C28.615 14.375 30.065 14.93 31.205 16.02L34.36 12.865C32.455 11.09 29.965 10 27 10C22.7 10 18.98 12.465 17.17 16.06L20.845 18.91C21.71 16.31 24.135 14.375 27 14.375Z" fill="#EA4335"/>
</svg>
