<svg width="342" height="43" viewBox="0 0 342 43" fill="none" xmlns="http://www.w3.org/2000/svg">
<rect width="342" height="43" rx="8" fill="#FAE100"/>
<path d="M107.773 16.6562H101.289V18.0625H106.047C105.992 18.8047 105.875 19.5 105.695 20.1641L100.555 20.4844L100.773 21.9844L105.172 21.5703C104.352 23.2422 102.891 24.6562 100.445 25.8594L101.398 27.1719C106.602 24.5859 107.766 20.9219 107.773 16.6562ZM109.758 29.3594H111.492V22.2188H113.586V20.7969H111.492V15.2656H109.758V29.3594ZM121.602 16.6562H115.117V18.0625H119.875C119.82 18.8047 119.703 19.5 119.523 20.1641L114.383 20.4844L114.602 21.9844L119 21.5703C118.18 23.2422 116.719 24.6562 114.273 25.8594L115.227 27.1719C120.43 24.5859 121.594 20.9219 121.602 16.6562ZM123.586 29.3594H125.32V22.2188H127.414V20.7969H125.32V15.2656H123.586V29.3594ZM134.508 16.0625C131.5 16.0703 129.266 17.5781 129.273 19.875C129.266 21.9922 131.086 23.4062 133.648 23.6641V26.25H128.086V27.6719H140.992V26.25H135.367V23.6641C137.961 23.4062 139.781 21.9922 139.773 19.875C139.781 17.5781 137.539 16.0703 134.508 16.0625ZM130.977 19.875C130.969 18.3984 132.445 17.4609 134.508 17.4688C136.602 17.4609 138.07 18.3984 138.07 19.875C138.07 21.3984 136.602 22.3125 134.508 22.3125C132.445 22.3125 130.969 21.3984 130.977 19.875ZM154.789 22.7969H149.195V21.6094H153.352V20.2812H145.273V19.2344H152.898V17.9375H145.273V16.9688H153.242V15.6094H143.539V21.6094H147.461V22.7969H141.883V24.1719H154.789V22.7969ZM143.336 26.5469H151.414V29.3906H153.164V25.1719H143.336V26.5469ZM162.164 16.0625C159.203 16.0625 156.922 17.6484 156.93 20.0469C156.922 22.4766 159.203 24.0625 162.164 24.0625C165.141 24.0625 167.438 22.4766 167.43 20.0469C167.438 17.6484 165.141 16.0625 162.164 16.0625ZM155.742 27.6094H168.648V26.1875H155.742V27.6094ZM158.602 20.0469C158.594 18.4844 160.109 17.4531 162.164 17.4688C164.227 17.4531 165.727 18.4844 165.727 20.0469C165.727 21.6484 164.227 22.6328 162.164 22.6406C160.109 22.6328 158.594 21.6484 158.602 20.0469ZM182.477 26.3125H176.852V24.0156H181.273V22.5938H172.836V20.7656H180.945V16.2344H171.07V17.6406H179.227V19.3906H171.102V24.0156H175.133V26.3125H169.57V27.75H182.477V26.3125ZM192.539 18.6562V16.4062H190.773V18.6562C190.766 21.3828 189.391 24.0781 187.039 25.0938L188.102 26.5469C189.812 25.7422 191.031 24.1172 191.68 22.1328C192.336 23.9766 193.523 25.4688 195.148 26.2188L196.18 24.8281C193.891 23.8438 192.523 21.25 192.539 18.6562ZM197.195 29.4062H198.945V15.2656H197.195V29.4062ZM206.086 17.7188V17.5469H209.023V16.1562H201.352V17.5469H204.336V17.7188C204.336 19.5703 203.141 21.3984 200.867 22.1562L201.789 23.5C203.438 22.9375 204.609 21.7891 205.234 20.3438C205.852 21.6641 206.969 22.7188 208.555 23.25L209.43 21.9062C207.203 21.1719 206.086 19.4609 206.086 17.7188ZM202.758 25.8281H210.43V29.3906H212.164V24.4375H202.758V25.8281ZM210.43 23.7812H212.164V20.25H214.133V18.7969H212.164V15.2656H210.43V23.7812ZM225.914 15.2656H224.195V29.3906H225.914V22.3281H228.086V20.8906H225.914V15.2656ZM214.773 18.8281H223.102V17.4375H219.852V15.4688H218.117V17.4375H214.773V18.8281ZM215.43 23.0781C215.414 25.0234 216.93 26.3906 218.992 26.3906C221.023 26.3906 222.531 25.0234 222.539 23.0781C222.531 21.125 221.023 19.7422 218.992 19.75C216.93 19.7422 215.414 21.125 215.43 23.0781ZM217.086 23.0781C217.078 21.9297 217.883 21.1719 218.992 21.1719C220.078 21.1719 220.867 21.9297 220.883 23.0781C220.867 24.2266 220.078 24.9609 218.992 24.9531C217.883 24.9609 217.078 24.2266 217.086 23.0781ZM240.477 15.2656H238.727V29.3906H240.477V15.2656ZM228.773 25.5L229.68 26.8906C234.625 24.5391 236.258 20.9688 236.258 16.7656H229.492V18.1406H234.492C234.18 21.3516 232.477 23.7422 228.773 25.5Z" fill="#393939"/>
<path d="M27 10.5C33.627 10.5 39 14.865 39 20.25C39 25.635 33.627 30 27 30C26.364 30 25.7385 29.9595 25.1295 29.8815C22.5525 32.4585 19.4745 32.922 16.5 32.9895V32.358C18.1065 31.5705 19.5 30.138 19.5 28.5C19.5 28.272 19.482 28.047 19.449 27.828C16.7355 26.04 15 23.31 15 20.25C15 14.865 20.373 10.5 27 10.5Z" fill="#3C1E1E"/>
</svg>
